<?xml version="1.0" encoding="UTF-8"?>
<svg version="1.1" xmlns="http://www.w3.org/2000/svg" width="16" height="16">
<path d="M0 0 C0.78761719 -0.00257812 1.57523438 -0.00515625 2.38671875 -0.0078125 C4.3125 0.125 4.3125 0.125 5.3125 1.125 C5.45676614 5.79345228 5.35458415 10.45365953 5.3125 15.125 C0.0325 15.125 -5.2475 15.125 -10.6875 15.125 C-10.8828125 5.9453125 -10.8828125 5.9453125 -10.6875 3.125 C-7.52274358 -0.03975642 -4.33901884 -0.01434386 0 0 Z " fill="#F4E126" transform="translate(10.6875,0.875)"/>
<path d="M0 0 C0.66 0 1.32 0 2 0 C1.67 1.65 1.34 3.3 1 5 C1.7425 4.484375 2.485 3.96875 3.25 3.4375 C6 2 6 2 8.3125 2.3125 C9.1478125 2.6528125 9.1478125 2.6528125 10 3 C9.01 3.66 8.02 4.32 7 5 C5.84682337 7.97903963 5.9551971 8.86559131 7 12 C6.67 12.66 6.34 13.32 6 14 C3.36 14 0.72 14 -2 14 C-2.05389087 12.04196493 -2.09274217 10.08351091 -2.125 8.125 C-2.14820313 7.03445312 -2.17140625 5.94390625 -2.1953125 4.8203125 C-2 2 -2 2 0 0 Z " fill="#F28148" transform="translate(2,2)"/>
<path d="M0 0 C0.33 0.66 0.66 1.32 1 2 C3.31 1.34 5.62 0.68 8 0 C8 2.97 8 5.94 8 9 C5.36 9 2.72 9 0 9 C-1.125 3.375 -1.125 3.375 0 0 Z " fill="#ECDD27" transform="translate(8,7)"/>
<path d="M0 0 C0.66 0 1.32 0 2 0 C1.125 4.75 1.125 4.75 0 7 C0.66 7 1.32 7 2 7 C2 8.65 2 10.3 2 12 C2.99 11.67 3.98 11.34 5 11 C5 11.99 5 12.98 5 14 C2.69 14 0.38 14 -2 14 C-2.05389087 12.04196493 -2.09274217 10.08351091 -2.125 8.125 C-2.14820313 7.03445312 -2.17140625 5.94390625 -2.1953125 4.8203125 C-2 2 -2 2 0 0 Z " fill="#F26C45" transform="translate(2,2)"/>
<path d="M0 0 C0.33 0.66 0.66 1.32 1 2 C3.31 1.34 5.62 0.68 8 0 C8 0.66 8 1.32 8 2 C5.69 3.32 3.38 4.64 1 6 C0.34 5.01 -0.32 4.02 -1 3 C-0.67 2.01 -0.34 1.02 0 0 Z " fill="#E9C234" transform="translate(8,7)"/>
<path d="M0 0 C-0.33 0.99 -0.66 1.98 -1 3 C-2.98 3.33 -4.96 3.66 -7 4 C-7 3.01 -7 2.02 -7 1 C-4.50935112 0.31292445 -2.62113708 0 0 0 Z " fill="#FAE73D" transform="translate(16,5)"/>
<path d="M0 0 C0.33 0 0.66 0 1 0 C1 1.98 1 3.96 1 6 C-0.32 6 -1.64 6 -3 6 C-2.42655063 3.13275314 -2.1385485 2.1385485 0 0 Z " fill="#B6CF2F" transform="translate(15,10)"/>
<path d="M0 0 C-0.99 0.66 -1.98 1.32 -3 2 C-3.33 2.99 -3.66 3.98 -4 5 C-4.66 5 -5.32 5 -6 5 C-6 3.35 -6 1.7 -6 0 C-3.50907189 -1.24546405 -2.58919267 -0.7767578 0 0 Z " fill="#709E46" transform="translate(12,5)"/>
</svg>
